<svg width="162" height="50" viewBox="0 0 162 50" fill="none" xmlns="http://www.w3.org/2000/svg">
<g opacity="0.95">
<circle cx="85.2504" cy="43.8421" r="13.65" transform="rotate(-3.84411 85.2504 43.8421)" fill="white"/>
<circle cx="104.184" cy="34.7523" r="13.65" transform="rotate(-3.84411 104.184 34.7523)" fill="white"/>
<circle cx="105.229" cy="50.3172" r="13.65" transform="rotate(-3.84411 105.229 50.3172)" fill="white"/>
<circle cx="121.307" cy="37.5106" r="13.65" transform="rotate(-3.84411 121.307 37.5106)" fill="white"/>
<circle cx="128.664" cy="50.0455" r="13.65" transform="rotate(-3.84411 128.664 50.0455)" fill="white"/>
<circle cx="142.322" cy="40.0073" r="13.65" transform="rotate(-3.84411 142.322 40.0073)" fill="white"/>
</g>
<g opacity="0.95">
<circle cx="17.1572" cy="56.0981" r="13.65" transform="rotate(-3.84411 17.1572 56.0981)" fill="white"/>
<circle cx="36.0904" cy="47.0083" r="13.65" transform="rotate(-3.84411 36.0904 47.0083)" fill="white"/>
<circle cx="37.1363" cy="62.5732" r="13.65" transform="rotate(-3.84411 37.1363 62.5732)" fill="white"/>
<circle cx="53.2139" cy="49.7665" r="13.65" transform="rotate(-3.84411 53.2139 49.7665)" fill="white"/>
<circle cx="60.5708" cy="62.3015" r="13.65" transform="rotate(-3.84411 60.5708 62.3015)" fill="white"/>
<circle cx="74.2286" cy="52.2632" r="13.65" transform="rotate(-3.84411 74.2286 52.2632)" fill="white"/>
</g>
<g opacity="0.6">
<circle cx="97.0911" cy="26.1957" r="13.65" transform="rotate(-3.84411 97.0911 26.1957)" fill="white"/>
<circle cx="116.024" cy="17.106" r="13.65" transform="rotate(-3.84411 116.024 17.106)" fill="white"/>
<circle cx="117.07" cy="32.6709" r="13.65" transform="rotate(-3.84411 117.07 32.6709)" fill="white"/>
<circle cx="133.148" cy="19.8642" r="13.65" transform="rotate(-3.84411 133.148 19.8642)" fill="white"/>
<circle cx="140.505" cy="32.3992" r="13.65" transform="rotate(-3.84411 140.505 32.3992)" fill="white"/>
<circle cx="154.162" cy="22.3609" r="13.65" transform="rotate(-3.84411 154.162 22.3609)" fill="white"/>
</g>
<g opacity="0.6">
<circle cx="39.417" cy="47.9256" r="13.65" transform="rotate(-4.59401 39.417 47.9256)" fill="white"/>
<circle cx="58.2297" cy="38.5888" r="13.65" transform="rotate(-4.59401 58.2297 38.5888)" fill="white"/>
<circle cx="59.4792" cy="54.1387" r="13.65" transform="rotate(-4.59401 59.4792 54.1387)" fill="white"/>
<circle cx="75.3877" cy="41.1227" r="13.65" transform="rotate(-4.59401 75.3877 41.1227)" fill="white"/>
<circle cx="82.9081" cy="53.5603" r="13.65" transform="rotate(-4.59401 82.9081 53.5603)" fill="white"/>
<circle cx="96.4333" cy="43.3442" r="13.65" transform="rotate(-4.59401 96.4333 43.3442)" fill="white"/>
</g>
</svg>
