<?xml version="1.0" encoding="iso-8859-1"?>
<!-- Generator: Adobe Illustrator 16.0.0, SVG Export Plug-In . SVG Version: 6.00 Build 0)  -->
<!DOCTYPE svg PUBLIC "-//W3C//DTD SVG 1.1//EN" "http://www.w3.org/Graphics/SVG/1.1/DTD/svg11.dtd">
<svg version="1.1" id="Capa_1" xmlns="http://www.w3.org/2000/svg" xmlns:xlink="http://www.w3.org/1999/xlink" x="0px" y="0px"
	 width="592.8px" height="592.8px" viewBox="0 0 592.8 592.8" fill="#3B3B54" xml:space="preserve"
	>
<g>
	<path d="M533.6,202.65c1.9-7.7,1.9-13.4,1.9-21c0-53.5-42.1-95.6-95.6-95.6c-36.301,0-66.9,19.1-84.101,47.8
		c-11.5-5.7-24.899-9.6-40.2-9.6c-40.2,0-72.7,26.8-82.2,63.1c-13.4-3.8-26.8-5.7-42.1-5.7c-74.6,0-133.9,59.3-133.9,133.9
		c0,1.9,0,5.7,0,7.601C23,338.45,0,370.95,0,411.15c0,53.5,42.1,95.6,95.6,95.6h325.1c53.5,0,95.6-42.1,95.6-95.6
		c0-21-7.6-42.101-19.1-57.4h19.1c42.101,0,76.5-34.4,76.5-76.5C592.9,240.95,568,210.35,533.6,202.65z M420.8,487.65H95.6
		c-42.1,0-76.5-34.4-76.5-76.5c0-36.301,24.9-66.9,59.3-74.601c-1.9-7.7-1.9-13.399-1.9-21c0-63.1,51.6-114.8,114.8-114.8
		c44,0,84.1,24.9,103.3,63.1c15.3-15.3,36.3-24.9,59.3-24.9c47.8,0,86.1,38.2,86.1,86.1c0,3.8,0,7.601,0,11.5
		c32.5,7.601,57.4,38.2,57.4,74.601C497.2,453.25,462.8,487.65,420.8,487.65z M516.4,334.65h-38.2
		c-5.7-3.801-11.5-7.601-19.101-11.5c0-57.4-47.8-103.3-105.199-103.3c-21,0-38.2,5.7-55.5,15.3c-13.4-17.2-28.7-30.6-47.8-40.2
		c7.6-30.6,32.5-51.6,65-51.6c19.101,0,38.2,7.7,49.7,21c7.601-34.4,38.2-59.3,74.601-59.3c42.1,0,76.5,34.4,76.5,76.5
		c0,13.4-3.801,26.8-9.601,38.2h9.601c32.5,0,57.399,24.9,57.399,57.4C573.8,309.65,548.9,334.65,516.4,334.65z"/>
</g>
<g>
</g>
<g>
</g>
<g>
</g>
<g>
</g>
<g>
</g>
<g>
</g>
<g>
</g>
<g>
</g>
<g>
</g>
<g>
</g>
<g>
</g>
<g>
</g>
<g>
</g>
<g>
</g>
<g>
</g>
</svg>
