<?xml version="1.0" encoding="utf-8"?>
<!-- Generator: Adobe Illustrator 17.0.0, SVG Export Plug-In . SVG Version: 6.00 Build 0)  -->
<!DOCTYPE svg PUBLIC "-//W3C//DTD SVG 1.1//EN" "http://www.w3.org/Graphics/SVG/1.1/DTD/svg11.dtd">
<svg version="1.1" id="Layer_1" xmlns:sketch="http://www.bohemiancoding.com/sketch/ns"
	 xmlns="http://www.w3.org/2000/svg" xmlns:xlink="http://www.w3.org/1999/xlink" x="0px" y="0px" width="72px" height="72px"
	 viewBox="0 0 72 72" enable-background="new 0 0 72 72" xml:space="preserve">
<title>Compass</title>
<desc>Created with Sketch.</desc>
<g id="Page-1" sketch:type="MSPage">
	<g id="Compass" transform="translate(5.000000, 5.000000)" sketch:type="MSLayerGroup">
		<path id="Shape_3_" sketch:type="MSShapeGroup" fill="none" stroke="#3B3B54" stroke-width="2" d="M40,14.1
			c-1.9-1-4.1-1.7-6.3-2.1L31,0l-2.7,12.1c-8.4,1.2-15.1,7.8-16.3,16.3L0,31l12.1,2.7c0.3,2.3,1,4.4,2.1,6.3"/>
		<path id="Shape_4_" sketch:type="MSShapeGroup" fill="none" stroke="#3B3B54" stroke-width="2" d="M22,47.9c1.9,1,4.1,1.7,6.3,2.1
			L31,62l2.7-12.1c8.4-1.2,15.1-7.8,16.3-16.3L62,31l-12.1-2.7c-0.3-2.3-1-4.4-2.1-6.3"/>
		<path id="Shape" sketch:type="MSShapeGroup" fill="none" stroke="#3B3B54" stroke-width="2" d="M43.7,28.1C43.9,29,44,30,44,31
			c0,7.2-5.8,13-13,13c-1,0-2-0.1-3-0.3"/>
		<path id="Shape_1_" sketch:type="MSShapeGroup" fill="none" stroke="#3B3B54" stroke-width="2" d="M18.3,33.9C18.1,33,18,32,18,31
			c0-7.2,5.8-13,13-13c1.1,0,2.1,0.1,3.1,0.4"/>
		<path id="Shape_2_" sketch:type="MSShapeGroup" fill="none" stroke="#3B3B54" stroke-width="2" d="M4.8,57.2l22-30.4l30.4-22
			l-22,30.4L4.8,57.2z"/>
		<circle id="Oval" sketch:type="MSShapeGroup" fill="none" stroke="#3B3B54" stroke-width="2" cx="31" cy="31" r="2">
		</circle>
	</g>
</g>
</svg>
